PathFileType	4	(X/Y/Z)	C:/Users/opensim2020/Desktop/walking_exp_matlab/subject03_walking12_straight_01.trc	
DataRate	CameraRate	NumFrames	NumMarkers	Units	OrigDataRate	OrigDataStartFrame	OrigNumFrames	
100.00	100.00	4	48	mm	100.00	686	211	
Frame#	Time	LFHD			RFHD			LBHD			RBHD			C7			T10			CLAV			STRN			RBAK			LSHO			LUPA			LELB			LFRM			LWRA			LWRB			LFIN			RSHO			RUPA			RELB			RFRM			RWRA			RWRB			RFIN			LASI			RASI			LPSI			RPSI			LTHI			LKNE			LTIB			LANK			LHEE			LTOE			RTHI			RKNE			RTIB			RANK			RHEE			RTOE			*39			*40			*41			*42			*43			*44			*45			*46			*47			
		X1	Y1	Z1	X2	Y2	Z2	X3	Y3	Z3	X4	Y4	Z4	X5	Y5	Z5	X6	Y6	Z6	X7	Y7	Z7	X8	Y8	Z8	X9	Y9	Z9	X10	Y10	Z10	X11	Y11	Z11	X12	Y12	Z12	X13	Y13	Z13	X14	Y14	Z14	X15	Y15	Z15	X16	Y16	Z16	X17	Y17	Z17	X18	Y18	Z18	X19	Y19	Z19	X20	Y20	Z20	X21	Y21	Z21	X22	Y22	Z22	X23	Y23	Z23	X24	Y24	Z24	X25	Y25	Z25	X26	Y26	Z26	X27	Y27	Z27	X28	Y28	Z28	X29	Y29	Z29	X30	Y30	Z30	X31	Y31	Z31	X32	Y32	Z32	X33	Y33	Z33	X34	Y34	Z34	X35	Y35	Z35	X36	Y36	Z36	X37	Y37	Z37	X38	Y38	Z38	X39	Y39	Z39	X40	Y40	Z40	X41	Y41	Z41	X42	Y42	Z42	X43	Y43	Z43	X44	Y44	Z44	X45	Y45	Z45	X46	Y46	Z46	X47	Y47	Z47	X48	Y48	Z48	

132	1.310	-1071.13794	184.38614	1633.52136	-938.30658	171.14998	1634.87927	-1078.83093	68.93163	1564.60449	-948.23370	60.85055	1566.24829	-1013.35773	57.21315	1411.58936	-1010.19287	33.50759	1102.24109	-1016.29309	184.64626	1344.85254	-1027.05090	236.00917	1180.76831	-917.22314	16.71251	1237.04126	-1168.83679	127.48946	1384.29370	-1247.58301	131.47832	1192.18311	-1258.22864	161.61629	1075.95007	-1242.48083	256.89130	996.94037	-1193.33850	347.47583	931.97180	-1241.06824	329.70493	909.30341	-1218.75427	397.80029	863.91010	-855.15277	141.01509	1363.73083	-780.58075	142.79031	1142.31409	-766.35974	152.75305	1029.86768	-757.17743	155.57159	893.03925	-788.96136	170.15295	791.92188	-740.69250	144.74451	793.99097	-748.66260	153.27219	718.41656	-1130.19214	192.56279	937.79401	-895.71039	206.94412	943.89209	-1072.67371	33.41545	955.62836	-924.22308	44.86543	970.94690	-1182.17773	183.03737	633.49573	-1165.29797	229.83878	459.68884	-1151.88013	94.64591	317.27396	-1101.86597	-36.93477	159.05974	-1060.13367	-88.48163	154.68163	-1083.68799	61.32615	46.32125	-855.33228	178.70119	643.88147	-901.21271	203.75389	469.27493	-897.72552	150.40138	280.73364	-949.30640	103.23747	71.29269	-998.18359	54.08874	41.99554	-969.29858	241.73189	31.64900	-1029.81494	86.80453	1672.61902																								 
133	1.320	-1071.26990	197.81584	1634.87268	-938.54553	184.43105	1636.18994	-1078.92078	82.05275	1566.45044	-948.40228	73.95737	1567.95972	-1013.53326	70.21077	1413.18030	-1009.58356	46.08985	1104.06628	-1016.38812	197.32483	1346.37073	-1026.57275	248.67201	1182.16052	-916.41901	29.95555	1239.15979	-1168.90820	140.41867	1385.57825	-1247.19031	142.08414	1193.09717	-1257.92822	169.73082	1076.04517	-1242.99780	262.85370	993.91168	-1194.83508	351.72580	925.70886	-1242.38391	332.84570	903.88123	-1220.30298	399.18362	855.47247	-855.38574	154.09657	1365.97864	-780.24982	159.42265	1144.92004	-765.92822	171.70236	1032.72705	-756.93103	178.06725	896.02344	-788.85321	195.34697	795.44537	-740.63019	169.93315	796.82355	-748.21826	181.63078	721.84015	-1129.82568	205.25224	940.14008	-895.08643	218.91261	944.64935	-1072.74805	46.06567	958.02930	-924.14905	57.19624	972.50031	-1181.43701	200.45576	636.61322	-1163.23267	250.96535	463.71695	-1150.78210	122.75034	314.13483	-1101.38025	-0.74920	148.99893	-1059.97717	-52.55249	141.08099	-1082.79333	104.98422	44.14291	-855.88104	185.54080	644.37799	-900.90350	206.59285	469.18408	-897.92267	151.57381	281.31268	-949.54578	103.42558	72.01547	-998.34961	54.38457	43.23228	-969.32806	241.88573	31.52902	-1029.92493	100.41320	1674.35535																								 
134	1.330	-1071.49390	211.25751	1635.86633	-938.75238	197.84187	1637.29260	-1079.11755	95.23296	1567.88257	-948.53363	87.23051	1569.61157	-1013.64233	83.13820	1414.50842	-1008.98804	58.59977	1105.53369	-1016.43164	209.98668	1347.54724	-1026.09155	261.26193	1183.25488	-915.58258	43.11874	1240.87512	-1168.83374	153.26550	1386.33350	-1246.66528	152.72513	1193.59241	-1257.68311	178.02135	1075.94275	-1243.57532	268.79047	990.37628	-1196.22839	355.56097	918.71051	-1244.01746	335.53247	897.80194	-1222.23218	400.05203	846.51917	-855.58221	167.08029	1367.91113	-779.85498	175.96416	1147.42737	-765.34198	190.38858	1035.37573	-756.40710	200.33162	898.84900	-788.81366	220.74658	799.06824	-740.65985	195.30614	799.55280	-748.02271	210.14143	725.35248	-1129.39661	218.12415	942.26758	-894.86670	230.92851	945.16034	-1072.88684	58.70946	959.89716	-924.12506	69.44141	973.81989	-1180.75513	217.68674	639.44336	-1161.29956	271.46500	467.49323	-1150.09998	150.93610	310.63654	-1100.85510	36.30674	138.87170	-1059.54492	-15.15123	127.46853	-1082.64331	148.57053	41.77307	-856.30945	192.66446	644.78864	-900.90930	209.54863	469.14005	-898.27148	152.55391	281.99103	-950.20764	103.83604	72.69662	-998.46094	54.43687	44.59619	-969.19141	242.02260	31.48275	-1030.27551	113.94704	1675.76672																								 
135	1.340	-1071.77771	224.67827	1636.45178	-939.03748	211.21240	1638.06067	-1079.23389	108.42245	1568.94446	-948.78247	100.33501	1570.68054	-1013.64221	95.82199	1415.51099	-1008.47620	71.07990	1106.64551	-1016.46100	222.66653	1348.31677	-1025.58228	273.87277	1183.95642	-914.76208	56.15923	1242.13171	-1168.87561	166.20494	1386.74500	-1246.23694	163.59840	1193.70862	-1257.25879	186.61571	1075.37549	-1244.24170	274.64810	986.37592	-1197.73206	359.09848	911.11621	-1245.59961	337.96689	891.35748	-1224.51636	400.38849	837.15436	-855.76062	179.97707	1369.41809	-779.26288	192.05331	1149.46594	-764.63171	208.86920	1037.80652	-756.25745	222.88142	901.69537	-788.73792	246.36095	802.66345	-740.79254	220.63329	802.13739	-748.05548	238.65109	728.83112	-1129.15088	230.83867	943.69678	-894.59393	242.82382	945.38147	-1073.12720	71.37184	961.24091	-924.22424	81.46165	974.89441	-1180.32422	234.70555	641.91327	-1159.50818	291.22845	470.90533	-1149.14917	178.99529	306.99487	-1100.60486	74.09532	129.01271	-1058.77100	23.49564	113.93927	-1083.29016	192.26291	39.67276	-856.62708	199.09239	645.22125	-900.33838	212.48090	469.01688	-898.43695	153.45509	282.67191	-950.54315	103.88255	73.51115	-999.21252	54.67210	45.82792	-969.10663	242.29240	31.46466	-1030.50659	127.53248	1676.73010																								 
